PathFileType        4      (X/Y/Z)      C:\Users\pc\Desktop\IMUTRC\Sujet_03\Sujet_03_velo_60.trc         
DataRate	CameraRate	NumFrames	NumMarkers	Units	OrigDataRate	OrigDataStartFrame	OrigNumFrames
60.0	60.0	4	64	mm	60.0	117	929
Frame#	Time	pHipOrigin			pRightASI			pLeftASI			pRightCSI			pLeftCSI			pRightIschialTub			pLeftIschialTub			pSacrum			pL5SpinalProcess			pL3SpinalProcess			pT12SpinalProcess			pIJ			pT4SpinalProcess			pT8SpinalProcess			pPX			pC7SpinalProcess			pTopOfHead			pRightAuricularis			pLeftAuricularis			pBackOfHead			pRightAcromion			pLeftAcromion			pRightArmLatEpicondyle			pRightArmMedEpicondyle			pLeftArmLatEpicondyle			pLeftArmMedEpicondyle			pRightUlnarStyloid			pRightRadialStyloid			pRightOlecranon			pLeftUlnarStyloid			pLeftRadialStyloid			pLeftOlecranon			pRightTopOfHand			pRightPinky			pRightBallHand			pLeftTopOfHand			pLeftPinky			pLeftBallHand			pRightGreaterTrochanter			pRightKneeLatEpicondyle			pRightKneeMedEpicondyle			pRightPatella			pLeftGreaterTrochanter			pLeftKneeLatEpicondyle			pLeftKneeMedEpicondyle			pLeftPatella			pRightTibialTub			pRightLatMalleolus			pRightMedMalleolus			pLeftTibialTub			pLeftLatMalleolus			pLeftMedMalleolus			pRightHeelFoot			pRightFirstMetatarsal			pRightFifthMetatarsal			pRightPivotFoot			pRightHeelCenter			pRightToe			pLeftHeelFoot			pLeftFirstMetatarsal			pLeftFifthMetatarsal			pLeftPivotFoot			pLeftHeelCenter			pLeftToe			
		X1	Y1	Z1	X2	Y2	Z2	X3	Y3	Z3	X4	Y4	Z4	X5	Y5	Z5	X6	Y6	Z6	X7	Y7	Z7	X8	Y8	Z8	X9	Y9	Z9	X10	Y10	Z10	X11	Y11	Z11	X12	Y12	Z12	X13	Y13	Z13	X14	Y14	Z14	X15	Y15	Z15	X16	Y16	Z16	X17	Y17	Z17	X18	Y18	Z18	X19	Y19	Z19	X20	Y20	Z20	X21	Y21	Z21	X22	Y22	Z22	X23	Y23	Z23	X24	Y24	Z24	X25	Y25	Z25	X26	Y26	Z26	X27	Y27	Z27	X28	Y28	Z28	X29	Y29	Z29	X30	Y30	Z30	X31	Y31	Z31	X32	Y32	Z32	X33	Y33	Z33	X34	Y34	Z34	X35	Y35	Z35	X36	Y36	Z36	X37	Y37	Z37	X38	Y38	Z38	X39	Y39	Z39	X40	Y40	Z40	X41	Y41	Z41	X42	Y42	Z42	X43	Y43	Z43	X44	Y44	Z44	X45	Y45	Z45	X46	Y46	Z46	X47	Y47	Z47	X48	Y48	Z48	X49	Y49	Z49	X50	Y50	Z50	X51	Y51	Z51	X52	Y52	Z52	X53	Y53	Z53	X54	Y54	Z54	X55	Y55	Z55	X56	Y56	Z56	X57	Y57	Z57	X58	Y58	Z58	X59	Y59	Z59	X60	Y60	Z60	X61	Y61	Z61	X62	Y62	Z62	X63	Y63	Z63	X64	Y64	Z64	
117	1.933	0.0	1250.01021	7.654105012890054E-14	91.82705000000001	1337.71085	132.2774400000001	81.07514999999998	1333.00326	-141.98320999999993	59.92005000000001	1412.91604	108.27455000000009	51.027939999999994	1409.02211	-118.09655999999991	-64.62764	1205.54965	59.97817000000008	-69.10276	1203.63174	-53.17831999999992	-62.36103	1284.53253	1.8597900000000824	-5.23065	1376.35958	-1.5691999999999153	59.1064	1477.77616	-5.869959999999913	119.54952	1569.71944	-9.88012999999991	387.24279	1614.58684	-26.443859999999926	262.05579	1715.07352	-19.00470999999991	188.88475	1653.93298	-14.355239999999911	290.8244	1526.94431	-20.225199999999926	308.37615	1751.51375	-21.38756999999991	567.52602	1832.2983	-60.26875999999992	491.85589	1784.40875	26.850690000000082	466.10944	1784.40875	-115.24875999999992	452.80033	1834.5068	-39.46237999999992	319.3024	1714.89917	194.5803500000001	306.16765	1684.91008	-238.1110199999999	420.31216	1437.67447	154.12996000000007	402.29546	1437.15141	96.24404000000006	397.82034	1409.77765	-202.42632999999995	383.05827	1408.84775	-143.66864999999996	507.0829	1198.16861	115.82994000000004	555.55364	1219.03311	126.52372000000004	384.7437	1432.85065	122.51355000000005	493.25073	1173.00335	-187.08307999999994	541.08216	1196.2507	-195.45212999999995	363.99544	1403.55898	-171.10051999999993	648.19434	1065.54246	222.82589000000002	570.6063	1093.20681	166.10234000000003	547.12647	1161.08908	125.12888000000004	664.29313	1077.34049	-297.44989	579.38217	1083.96599	-244.91086999999996	541.31463	1141.27071	-199.05546999999999	41.729000000000006	1239.14207	161.68535000000008	413.68666	1074.55081	91.36210000000004	406.01503	1075.77129	11.739910000000041	424.67103	1117.38406	48.12202000000004	6.683609999999989	1225.42613	-168.31083999999993	243.92286	887.93268	-182.66607999999997	255.13971	884.8524	-103.50883999999996	284.48949	914.5509	-144.24982999999997	446.29107	1028.46293	41.089700000000036	238.63409	663.65383	87.70064000000004	228.8702	666.90846	21.620040000000024	281.3511	832.31338	-143.90111999999996	15.633849999999995	506.85043	-100.95162999999997	30.512149999999995	510.2213	-35.80091999999997	164.0682	600.07232	36.614580000000025	320.75536	552.41524	-18.830359999999985	321.10407	530.09778	59.68758000000001	342.49164	533.52677	16.97057000000001	201.90327	586.82133	32.72065000000002	420.31216	504.40946	8.369050000000005	-57.65344	468.55041	-32.31381999999997	83.69047	371.02777	-12.088619999999983	58.93203999999999	352.72047	-87.64251999999998	89.44419	347.4317	-51.144179999999984	-26.211390000000005	443.73386	-36.61457999999997	153.54877	294.60209	-59.28074999999998	
118	1.95	0.0	1250.01021	7.654105012890054E-14	91.82705000000001	1337.5365	132.39368000000007	80.84266999999998	1333.46821	-141.80885999999992	59.74570000000001	1412.68357	108.62326000000009	50.73734999999999	1409.37082	-117.74784999999991	-64.56952	1205.31717	59.92005000000008	-69.10276	1203.63174	-53.236439999999924	-62.36103	1284.47441	1.9760300000000823	-5.40501	1376.35958	-1.2785999999999154	58.87392	1477.8924	-5.521249999999913	119.20081	1569.8938	-9.473299999999911	386.83597	1614.81931	-26.385749999999927	261.64897	1715.24788	-18.77223999999991	188.53604	1654.10734	-14.006529999999909	290.47568	1527.11867	-20.050839999999926	308.02744	1751.74622	-21.21320999999991	567.29355	1832.18207	-60.21064999999992	491.50718	1784.46687	26.850690000000082	465.76073	1784.46687	-115.19063999999992	452.56786	1834.62304	-39.46237999999992	318.95369	1714.89917	194.87094000000008	305.64458	1685.14255	-237.8785499999999	420.07968	1437.79071	154.36243000000005	402.06298	1437.26764	96.47652000000005	397.41351	1410.06824	-202.31009999999995	382.8258	1409.19646	-143.49428999999995	507.0829	1198.34297	116.06241000000004	555.49552	1219.26558	126.81431000000005	384.51123	1432.90877	122.74603000000006	493.07637	1173.41018	-186.90871999999993	540.84968	1196.65753	-195.27776999999995	363.70485	1403.84957	-170.98428999999993	648.19434	1065.77493	223.23271000000003	570.6063	1093.38116	166.45105000000004	547.12647	1161.32156	125.41947000000005	664.11878	1077.6892	-297.21742	579.26594	1084.37281	-244.67839999999998	541.14028	1141.67754	-198.82298999999998	41.20593000000001	1237.51476	161.74346000000008	408.39789	1062.46218	91.47834000000005	401.01685	1064.26385	11.85615000000004	420.71898	1105.12108	48.470730000000046	7.381029999999989	1227.05345	-168.6014299999999	252.00131	895.02312	-187.02495999999996	262.98569	891.01295	-107.86771999999996	291.81241	921.93193	-148.02751999999998	442.68773	1017.53667	41.38029000000004	244.44592	647.49692	87.75876000000002	234.79827	650.40284	21.678160000000023	287.27917	838.24146	-147.79504999999997	11.681799999999996	521.90309	-99.38243999999997	27.199399999999997	525.39019	-34.40607999999997	171.39112	582.34621	36.44023000000003	329.12441	538.17624	-18.94658999999999	329.82183	515.68442	59.51323000000001	351.2094	519.63647	16.85433000000001	209.51678	569.967	32.54630000000002	429.66922	492.2046	8.310930000000004	-62.24479	485.86969	-30.39591999999997	76.8325	385.20865	-9.473299999999982	51.492889999999996	366.78512	-84.85283999999997	81.94692	361.14764	-48.296379999999985	-31.383930000000003	460.23949	-34.52231999999997	144.83101	306.69071	-56.08423999999999	
119	1.967	0.0	1250.01021	7.654105012890054E-14	91.88517000000002	1337.30402	132.50992000000008	80.61019999999999	1333.87504	-141.75073999999992	59.74570000000001	1412.50921	108.91385000000008	50.44675999999999	1409.71953	-117.45724999999992	-64.45329	1205.14282	59.92005000000008	-69.10276	1203.68986	-53.29455999999992	-62.41914	1284.41629	2.150380000000083	-5.52125	1376.35958	-0.9880099999999155	58.69957	1477.95051	-5.172539999999913	118.96833	1569.95192	-9.182699999999912	386.54537	1615.05178	-26.501979999999925	261.35837	1715.42223	-18.714119999999912	188.24545	1654.22357	-13.77405999999991	290.24321	1527.29302	-19.992719999999924	307.67873	1751.9787	-21.21320999999991	567.00296	1832.18207	-60.38499999999992	491.21658	1784.58311	26.73446000000008	465.47014	1784.58311	-115.30686999999992	452.27727	1834.73927	-39.578619999999916	318.77934	1714.84105	194.98718000000008	305.17964	1685.31691	-237.8204299999999	419.90533	1437.79071	154.36243000000005	401.83051	1437.26764	96.53464000000005	397.0648	1410.35883	-202.36820999999995	382.59332	1409.48706	-143.55240999999995	507.02478	1198.40108	116.29489000000004	555.4374	1219.38182	127.10491000000005	384.33688	1432.96688	122.74603000000006	492.90202	1173.75889	-186.67624999999995	540.67533	1197.06436	-195.10341999999994	363.41426	1404.14017	-171.04240999999993	648.0781	1065.89117	223.58142000000004	570.49006	1093.4974	166.79976000000002	547.06835	1161.37967	125.71007000000004	664.00254	1077.97979	-296.86871	579.09158	1084.66341	-244.38780999999997	541.02404	1142.02625	-198.59051999999997	40.68287000000001	1235.71309	161.74346000000008	401.94675	1048.68813	91.53646000000005	394.79818	1051.1291	11.91427000000004	415.77892	1091.17267	48.76132000000003	7.96221999999999	1228.62264	-168.89201999999992	260.19601	902.63663	-191.32571999999996	271.12226	897.75468	-112.22659999999996	299.30968	929.95227	-151.86333999999997	437.92203	1005.04122	41.61276000000004	249.32787	629.88705	87.41005000000003	239.85457	632.5605	21.271330000000024	293.3816	844.80883	-151.63085999999998	8.369049999999994	537.76941	-98.10382999999997	24.409719999999997	541.43087	-33.30182999999997	177.60978	563.3415	36.03340000000002	336.15673	522.2518	-19.46965999999999	337.3191	499.70187	58.99016000000001	358.59043	504.11887	16.27315000000001	215.96792	551.71782	32.08135000000002	437.57332	478.13995	7.671630000000003	-65.96437	503.77016	-28.884839999999965	71.1369	400.49379	-7.3810299999999796	45.332339999999995	382.07026	-82.64433999999997	75.72825	376.08407	-46.02975999999999	-35.62657	477.50065	-32.83688999999997	137.44998	320.29042	-53.52702999999999	
120	1.983	0.0	1250.01021	7.654105012890054E-14	92.11764000000001	1337.07155	132.50992000000008	80.31960999999998	1334.22375	-141.69261999999992	59.861940000000004	1412.27674	109.14633000000009	50.09804999999999	1410.01012	-117.22477999999991	-64.27893	1204.96846	59.92005000000008	-69.16088	1203.80609	-53.236439999999924	-62.41914	1284.35818	2.3247400000000824	-5.63748	1376.35958	-0.6974199999999154	58.52521	1478.00863	-4.940059999999913	118.79398	1570.06815	-8.95022999999991	386.3129	1615.28426	-26.792579999999926	261.06778	1715.59659	-18.71411999999991	188.01297	1654.33981	-13.657819999999909	290.06886	1527.46738	-20.108959999999925	307.38813	1752.15305	-21.329449999999913	566.71237	1832.24018	-60.67558999999992	490.92599	1784.69935	26.443860000000083	465.12143	1784.69935	-115.59746999999992	452.04479	1834.91363	-39.811089999999915	318.60498	1714.78293	194.92906000000008	304.77281	1685.54938	-237.8785499999999	419.78909	1437.79071	154.30431000000004	401.65615	1437.26764	96.47652000000005	396.77421	1410.64942	-202.54256999999996	382.36085	1409.77765	-143.66864999999996	506.96667	1198.40108	116.52736000000004	555.32116	1219.38182	127.39550000000004	384.22064	1432.90877	122.62979000000006	492.72766	1174.04948	-186.50189999999995	540.50097	1197.35495	-194.87093999999993	363.12367	1404.43076	-171.21675999999994	647.90375	1066.00741	224.04637000000002	570.37382	1093.55552	167.14847000000003	546.95211	1161.43779	126.00066000000004	663.8863	1078.21227	-296.52	578.97534	1084.954	-244.03909999999996	540.84968	1142.37496	-198.29992999999996	40.04357000000001	1233.73706	161.74346000000008	394.15888	1033.51923	91.47834000000003	387.30091	1036.65762	11.85615000000004	409.73461	1075.65506	48.93568000000003	8.42716999999999	1230.24996	-169.12449999999993	268.68129	910.94756	-195.68459999999996	279.54943	905.19384	-116.64359999999996	306.98131	938.61191	-155.75726999999998	431.99395	990.97657	41.78712000000004	252.98933	611.11481	86.94510000000002	243.7485	613.49767	20.748260000000023	299.89086	852.07363	-155.40855999999997	5.928079999999993	554.44939	-97.23205999999998	22.491809999999997	558.2852	-32.54629999999997	182.54985	543.34878	35.510330000000025	341.61986	504.99064	-20.22519999999999	343.3053	482.38259	58.176500000000004	364.46039	487.1483	15.517610000000007	221.08233	532.3644	31.558280000000018	443.79198	462.56422	6.7417300000000004	-68.63781	522.19368	-27.722469999999966	66.66179	416.76693	-5.753719999999979	40.508509999999994	398.28529	-80.84266999999997	70.84631	392.0085	-44.28620999999998	-38.76496	495.40111	-31.558279999999964	131.58002	335.16872	-51.434769999999986	
